<?xml version="1.0" encoding="utf-8"?>
<!-- Generator: Adobe Illustrator 23.1.0, SVG Export Plug-In . SVG Version: 6.00 Build 0)  -->
<svg version="1.1" id="Layer_1" xmlns="http://www.w3.org/2000/svg" xmlns:xlink="http://www.w3.org/1999/xlink" x="0px" y="0px"
	 viewBox="0 0 1231.11 302.24" style="enable-background:new 0 0 1231.11 302.24;" xml:space="preserve">
<style type="text/css">
	.st0{fill:none;stroke:#757DB2;stroke-width:15;stroke-linecap:round;stroke-linejoin:round;}
	.st1{fill:none;stroke:#8DB1E9;stroke-width:15;stroke-linecap:round;stroke-linejoin:round;}
	.st2{fill:none;stroke:#E8EFF8;stroke-width:15;stroke-linecap:round;stroke-linejoin:round;}
	.st3{fill:none;stroke:#4660B7;stroke-width:15;stroke-linecap:round;stroke-linejoin:round;}
</style>
<g>
	<path class="st0" d="M24.85,11.81c-1.63,9.33-8.43,16.88-17.35,19.58"/>
	<path class="st1" d="M49.05,11.81C47.06,34.43,29.72,52.64,7.5,55.95"/>
	<path class="st0" d="M73.13,11.81C71.03,47.71,43,76.64,7.5,80.14"/>
	<path class="st0" d="M83.67,57.08C67.9,83.53,39.92,101.86,7.5,104.26"/>
	<path class="st2" d="M83.67,95.21c-20.08,19.1-46.71,31.37-76.17,33.11"/>
	<path class="st2" d="M97.91,114.76C73.8,136.72,42.26,150.67,7.5,152.38"/>
	<path class="st1" d="M130.96,114.76c-29.58,36-73.74,59.56-123.46,61.66"/>
	<path class="st2" d="M193.31,11.81c-0.59,26.94-6.7,52.51-17.24,75.64"/>
	<path class="st2" d="M160.84,114.76c-18.4,27.49-43.68,50-73.37,65.06"/>
	<path class="st2" d="M7.5,200.45c27.2-1.01,52.97-7.63,76.17-18.76"/>
	<path class="st3" d="M217.33,11.81c-1.34,68.45-34.36,129.14-85,168.01"/>
	<path class="st3" d="M7.5,224.49c26.92-0.89,52.59-6.66,76.17-16.48"/>
	<path class="st1" d="M241.35,11.81c-1.16,65.8-28.67,125.17-72.44,168.01"/>
	<path class="st1" d="M7.5,248.53c26.71-0.79,52.32-5.92,76.17-14.71"/>
	<path class="st2" d="M176.08,205.96c34.75-30.81,61.35-70.6,76.17-115.73"/>
	<path class="st3" d="M7.5,272.56c26.55-0.71,52.12-5.34,76.17-13.3"/>
	<path class="st0" d="M176.08,237.08c30.92-23.71,56.9-53.52,76.17-87.64"/>
	<path class="st0" d="M61.28,290.21c7.58-1.63,15.04-3.55,22.38-5.76"/>
	<path class="st3" d="M313.41,11.81c-0.32,23.48-3.21,46.34-8.43,68.31"/>
	<path class="st1" d="M176.08,266.71c29.34-19.94,55.1-44.72,76.17-73.21"/>
	<path class="st1" d="M184.11,290.21c25.26-16.46,48.16-36.21,68.13-58.64"/>
	<path class="st1" d="M304.98,152.07c20.25-42.6,31.82-90.11,32.45-140.27"/>
	<path class="st1" d="M304.98,201.57c35.06-54.93,55.68-119.97,56.5-189.77"/>
	<path class="st3" d="M252.24,266.33c-8.63,8.4-17.67,16.37-27.1,23.88"/>
	<path class="st1" d="M304.98,243.24c49.67-64.1,79.56-144.29,80.52-231.43"/>
	<path class="st1" d="M409.52,11.81c-0.22,20.71-1.97,41.06-5.16,60.93"/>
	<path class="st2" d="M304.98,280.71c41.38-46.12,72.44-101.68,89.56-163.06"/>
	<path class="st0" d="M419.43,117.65c-5.44,20.75-12.38,40.89-20.69,60.31"/>
	<path class="st0" d="M328.62,290.21c20.08-23.3,37.72-48.75,52.53-75.97"/>
	<path class="st0" d="M433.54,11.81c-0.2,20.69-1.85,41.03-4.86,60.93"/>
	<path class="st0" d="M444.22,117.65c-5.12,20.69-11.65,40.83-19.48,60.31"/>
	<path class="st1" d="M457.56,11.81c-0.19,20.67-1.75,41-4.6,60.93"/>
	<path class="st2" d="M359.74,290.21c15.07-19.13,28.64-39.5,40.54-60.93"/>
	<path class="st2" d="M389.86,290.21c14.01-19.28,26.63-39.64,37.7-60.93"/>
	<path class="st2" d="M481.58,11.81c-0.18,20.65-1.66,40.98-4.37,60.93"/>
	<path class="st2" d="M450.54,177.96c7.4-19.53,13.56-39.66,18.39-60.31"/>
	<path class="st3" d="M419.2,290.21c13.11-19.39,24.91-39.74,35.27-60.93"/>
	<path class="st0" d="M483.37,156.23c-2.25,7.31-4.66,14.56-7.23,21.73"/>
	<path class="st0" d="M447.89,290.21c12.33-19.49,23.43-39.83,33.18-60.93"/>
	<path class="st0" d="M476.08,290.21c6.85-11.5,13.29-23.27,19.31-35.3"/>
	<path class="st3" d="M553.64,11.81c-0.34,43.85-5.76,86.49-15.73,127.35"/>
	<path class="st3" d="M537.9,218.5c25.18-64.1,39.22-133.79,39.75-206.7"/>
	<path class="st0" d="M601.68,11.81c-0.67,95.43-23.57,185.57-63.77,265.52"/>
	<path class="st1" d="M558.31,290.21c25.61-50.44,44.57-104.82,55.75-161.99"/>
	<path class="st1" d="M614.07,220.27c-8.31,23.98-17.98,47.32-28.94,69.93"/>
	<path class="st0" d="M636.91,227.73c-7.38,21.33-15.8,42.18-25.2,62.47"/>
	<path class="st3" d="M662.28,227.73c-7.08,21.3-15.16,42.14-24.19,62.47"/>
	<path class="st1" d="M664.29,290.21c8.68-20.36,16.45-41.2,23.26-62.47"/>
	<path class="st2" d="M712.74,227.73c-6.56,21.25-14.04,42.09-22.4,62.47"/>
	<path class="st3" d="M769.81,11.81c-0.22,38.94-3.32,77.21-9.11,114.58"/>
	<path class="st2" d="M723.57,270.9c-2.36,6.48-4.8,12.91-7.33,19.31"/>
	<path class="st1" d="M793.83,11.81c-0.42,77.6-11.96,152.57-33.13,223.38"/>
	<path class="st2" d="M767.67,290.21c32-86.83,49.68-180.58,50.19-278.4"/>
	<path class="st3" d="M836.87,99.9c-7.21,66.03-22.06,129.77-43.65,190.3"/>
	<path class="st0" d="M837.63,227.73c-5.55,21.15-11.88,41.99-18.95,62.47"/>
	<path class="st1" d="M862.45,227.73c-5.38,21.14-11.53,41.97-18.39,62.47"/>
	<path class="st0" d="M869.37,290.21c6.67-20.51,12.62-41.35,17.85-62.47"/>
	<path class="st0" d="M911.95,227.73c-5.08,21.11-10.88,41.95-17.37,62.47"/>
	<path class="st0" d="M919.75,290.21c6.31-20.54,11.95-41.37,16.89-62.47"/>
	<path class="st2" d="M984.62,60.23c-2.69,50.91-9.24,100.8-19.36,149.37"/>
	<path class="st2" d="M944.86,290.21c0.51-1.7,1-3.41,1.5-5.11"/>
	<path class="st3" d="M1009.66,34.99c-1.91,71.24-11.2,140.63-27.13,207.45"/>
	<path class="st0" d="M1033.97,20.39c-1.03,83.91-12.06,165.4-31.94,243.36"/>
	<path class="st3" d="M1023.07,278.29c7.47-28.28,13.8-57.03,18.94-86.19"/>
	<path class="st3" d="M1058.05,11.92c-0.1,24.83-1.06,49.46-2.84,73.86"/>
	<path class="st1" d="M1082.09,7.91c-0.01,20.33-0.59,40.53-1.71,60.59"/>
	<path class="st2" d="M1045.4,287.81c5.75-21.5,10.86-43.26,15.3-65.27"/>
	<path class="st3" d="M1106.11,7.5c0,20-0.55,39.88-1.6,59.63"/>
	<path class="st1" d="M1068.84,293.14c5.18-19.44,9.85-39.09,13.99-58.94"/>
	<path class="st3" d="M1093.27,294.74c5.21-19.89,9.91-39.99,14.05-60.29"/>
	<path class="st2" d="M1130.12,10.48c-0.06,22.75-0.79,45.35-2.17,67.76"/>
	<path class="st1" d="M1154.09,17.58c-0.28,32.38-1.88,64.45-4.78,96.14"/>
	<path class="st1" d="M1118.56,292.9c6.35-24.95,11.88-50.23,16.57-75.8"/>
	<path class="st1" d="M1177.93,30.23c-1.67,88.24-13.03,174.11-33.09,256.59"/>
	<path class="st1" d="M1201.4,51.17c-2.73,76.35-12.58,150.88-28.91,222.96"/>
	<path class="st0" d="M1223.61,87.88c-3.53,54.51-10.63,108.04-21.06,160.37"/>
</g>
</svg>
